# xmcd CD database file
#
# Track frame offsets:
#	150
#	15250
#	39980
#	58585
#	81172
#	106545
#	129140
#	148402
#	164710
#	195735
#
# Disc length: 2928 seconds
#
# Revision: 4
# Processed by: cddbd v1.5.2PL0 Copyright (c) Steve Scherf et al.
# Submitted via: CDex 1.51
#
DISCID=7b0b6e0a
DTITLE=Nocturnal Rites - IN A TIME OF BLOOD AND FIRE
DYEAR=1995
DGENRE=Melodic Power Metal
TTITLE0=Sword of steel
TTITLE1=Skyline flame
TTITLE2=Black death
TTITLE3=In a time of blood and fire
TTITLE4=Dawnspell
TTITLE5=Lay of ennui
TTITLE6=Winds of death
TTITLE7=Rest in peace
TTITLE8=Dragonisle
TTITLE9=LAY OF ENNUI (Demo Version)
EXTD=YEAR: 1995
EXTT0=
EXTT1=
EXTT2=
EXTT3=
EXTT4=
EXTT5=
EXTT6=
EXTT7=
EXTT8=
EXTT9=
PLAYORDER=
